<svg xmlns="http://www.w3.org/2000/svg" class="img-fluid" id="outputsvg" style="  " width="1038" height="898" viewBox="0 0 10380 8980"><g id="l5EUKJlB8y6LOxo6KqvNC9K" fill="rgb(6,6,6)" style="transform: none;"><g>
<path id="p908UnaNU" d="M0 4490 l0 -4490 5190 0 5190 0 0 4490 0 4490 -5190 0 -5190 0 0 -4490z m3892 3548 c49 -51 154 -158 233 -238 l143 -146 4 -2524 c2 -1389 1 -2536 -2 -2550 l-6 -25 -958 -3 -957 -2 -250 250 -250 250 966 0 965 0 0 33 c0 17 0 1115 0 2438 0 2180 3 2609 18 2609 3 0 45 -42 94 -92z m1330 -1350 c111 -112 223 -227 250 -257 l48 -54 2 -1661 3 -1661 299 -3 c212 -2 303 1 312 9 12 10 14 228 14 1350 l0 1338 243 -245 242 -246 5 -1101 5 -1102 763 -3 762 -2 0 -250 0 -250 -765 0 -765 0 0 -670 0 -670 -1137 -2 c-1474 -3 -1895 1 -1909 16 -7 6 -26 37 -43 69 -44 79 -138 193 -256 309 l-98 98 1474 2 1474 3 3 422 2 423 -554 0 c-305 0 -561 3 -570 6 -15 6 -16 206 -16 2170 0 1190 2 2164 5 2164 3 0 96 -91 207 -202z m2948 -5133 l0 -365 -435 0 -435 0 0 358 c0 197 3 362 7 365 3 4 199 7 435 7 l428 0 0 -365z"/>
</g></g><g id="lit92VKoRXpjxoTXs1qifB" fill="rgb(255,255,255)" style="transform: none;"><g>
<path id="piACwdWet" d="M3756 8208 c-3 -15 -9 -4203 -6 -5095 l0 -33 -985 0 c-660 0 -985 -3 -985 -10 0 -6 121 -132 269 -280 l270 -270 985 0 c777 0 987 3 993 12 7 12 12 4781 5 5037 l-3 114 -147 150 c-385 392 -390 397 -396 375z" style="fill: #4285F4;"/><path id="pEiT3BW3s" d="M4986 6963 c-3 -3 -6 -1002 -6 -2219 0 -2008 1 -2212 16 -2218 9 -3 265 -6 570 -6 l554 0 -2 -392 -3 -393 -1492 -3 c-1118 -1 -1493 -5 -1493 -14 0 -6 53 -63 117 -127 136 -135 229 -246 274 -328 17 -32 37 -64 44 -72 11 -11 252 -13 1446 -12 789 1 1485 1 1547 1 l112 0 0 670 0 670 765 0 765 0 0 280 0 280 -707 1 c-390 0 -733 1 -763 2 l-55 2 -5 1102 -5 1102 -270 272 -270 273 -3 -1363 c-1 -997 -5 -1368 -13 -1378 -10 -11 -64 -13 -283 -11 l-271 3 -3 1661 -2 1661 -48 54 c-56 62 -407 417 -468 472 -23 20 -44 34 -48 30z" style="fill: #FBBC05;"/>
<path id="pfNQzgfuu" d="M7277 1943 c-4 -3 -7 -181 -7 -395 l0 -388 465 0 c365 0 465 3 465 13 1 266 1 755 1 765 -1 9 -100 12 -459 12 -252 0 -462 -3 -465 -7z" style="fill: #EA4335;">
</path></g></g></svg>